<svg width="55" height="55" viewBox="0 0 55 55" fill="none" xmlns="http://www.w3.org/2000/svg">
<g clip-path="url(#clip0)">
<path d="M13.3023 51.0753C17.5517 53.6325 22.4105 54.9803 27.4026 54.9803C42.5303 54.9803 55 42.636 55 27.4899C55 12.3615 42.5479 0 27.4026 0C12.3036 0 0.019722 12.3321 0.019722 27.4899C0.019722 32.5488 1.36795 37.4445 3.92467 41.6973L0 55L13.3023 51.0753ZM3.24154 27.4899C3.24154 14.1084 14.0802 3.2214 27.4026 3.2214C40.8434 3.2214 51.7786 14.1084 51.7786 27.4899C51.7786 40.8719 40.8434 51.7585 27.4026 51.7585C22.7776 51.7585 18.2831 50.4484 14.4063 47.9693L13.7869 47.5736L4.76475 50.2357L7.42638 41.2131L7.03068 40.5941C4.55158 36.7165 3.24154 32.1854 3.24154 27.4899V27.4899Z" fill="#D1BE5E"/>
<path d="M13.3879 22.4247C13.92 25.219 15.4994 30.5934 20.098 35.192C24.6965 39.7906 30.071 41.3704 32.8656 41.9025C36.0656 42.5118 40.7616 42.6037 43.0565 40.3088L44.3359 39.0294C44.9817 38.3836 45.3375 37.5246 45.3375 36.6111C45.3375 35.6976 44.9817 34.8391 44.3359 34.1933L39.2195 29.0769C38.5733 28.4307 37.7147 28.0753 36.8012 28.0753C35.8877 28.0753 35.0292 28.4307 34.383 29.0769L33.104 30.3559C32.3227 31.1372 30.8477 31.1406 30.0605 30.3656L24.9571 25.0482C24.9496 25.0402 24.942 25.0322 24.934 25.0247C24.1515 24.2421 24.1515 22.9686 24.934 22.186L26.213 20.907C27.5499 19.5701 27.5499 17.407 26.213 16.0705L21.0967 10.9541C19.7635 9.62097 17.5941 9.62097 16.2606 10.9541L14.9816 12.2335V12.2331C13.15 14.0651 12.5394 17.9701 13.3879 22.4247V22.4247ZM17.2597 14.5116C18.6025 13.1995 18.5307 13.1743 18.6788 13.1743C18.7296 13.1743 18.7804 13.1936 18.819 13.2322C24.2102 18.6524 23.9937 18.3339 23.9937 18.4892C23.9937 18.5433 23.974 18.5907 23.9358 18.6293L22.6564 19.9083C20.6191 21.9455 20.6112 25.2433 22.6434 27.2898L27.7497 32.6105C27.7577 32.6181 27.7652 32.626 27.7732 32.634C29.81 34.6708 33.3386 34.6775 35.3821 32.634L36.6611 31.355C36.7383 31.2778 36.8642 31.2778 36.9414 31.355C42.3326 36.7748 42.1161 36.4563 42.1161 36.6116C42.1161 36.6661 42.0964 36.7131 42.0582 36.7517L40.7788 38.0307C39.9022 38.9073 37.1101 39.4318 33.4682 38.7382C31.0378 38.2749 26.3645 36.9028 22.3761 32.9143C18.3876 28.9259 17.0155 24.2526 16.5526 21.8222C15.8586 18.1803 16.3831 15.3878 17.2597 14.5116V14.5116Z" fill="#D1BE5E"/>
</g>
<defs>
<clipPath id="clip0">
<rect width="55" height="55" fill="white"/>
</clipPath>
</defs>
</svg>
